<mxfile host="app.diagrams.net" agent="Mozilla/5.0 (Windows NT 10.0; Win64; x64) AppleWebKit/537.36 (KHTML, like Gecko) Chrome/133.0.0.0 Safari/537.36" version="26.0.14">
  <diagram name="Page-1" id="PwKeCg2dg2BqS8mxweC-">
    <mxGraphModel dx="1500" dy="796" grid="1" gridSize="10" guides="1" tooltips="1" connect="1" arrows="1" fold="1" page="1" pageScale="1" pageWidth="850" pageHeight="1100" math="0" shadow="0">
      <root>
        <mxCell id="0" />
        <mxCell id="1" parent="0" />
        <mxCell id="2IIyxGK5jB-0DUj0H7Wt-23" style="edgeStyle=orthogonalEdgeStyle;rounded=0;orthogonalLoop=1;jettySize=auto;html=1;" edge="1" parent="1" source="2IIyxGK5jB-0DUj0H7Wt-12" target="2IIyxGK5jB-0DUj0H7Wt-20">
          <mxGeometry relative="1" as="geometry" />
        </mxCell>
        <mxCell id="2IIyxGK5jB-0DUj0H7Wt-12" value="mix function 2" style="rounded=0;whiteSpace=wrap;html=1;" vertex="1" parent="1">
          <mxGeometry x="363" y="470" width="120" height="60" as="geometry" />
        </mxCell>
        <mxCell id="2IIyxGK5jB-0DUj0H7Wt-68" value="" style="edgeStyle=orthogonalEdgeStyle;rounded=0;orthogonalLoop=1;jettySize=auto;html=1;" edge="1" parent="1" source="2IIyxGK5jB-0DUj0H7Wt-17" target="2IIyxGK5jB-0DUj0H7Wt-67">
          <mxGeometry relative="1" as="geometry" />
        </mxCell>
        <mxCell id="2IIyxGK5jB-0DUj0H7Wt-17" value="seed&lt;div&gt;x&lt;/div&gt;" style="shape=parallelogram;perimeter=parallelogramPerimeter;whiteSpace=wrap;html=1;fixedSize=1;" vertex="1" parent="1">
          <mxGeometry x="170" y="290" width="120" height="60" as="geometry" />
        </mxCell>
        <mxCell id="2IIyxGK5jB-0DUj0H7Wt-49" value="" style="edgeStyle=orthogonalEdgeStyle;rounded=0;orthogonalLoop=1;jettySize=auto;html=1;" edge="1" parent="1" source="2IIyxGK5jB-0DUj0H7Wt-20" target="2IIyxGK5jB-0DUj0H7Wt-48">
          <mxGeometry relative="1" as="geometry" />
        </mxCell>
        <mxCell id="2IIyxGK5jB-0DUj0H7Wt-71" value="" style="edgeStyle=orthogonalEdgeStyle;rounded=0;orthogonalLoop=1;jettySize=auto;html=1;" edge="1" parent="1" source="2IIyxGK5jB-0DUj0H7Wt-20" target="2IIyxGK5jB-0DUj0H7Wt-70">
          <mxGeometry relative="1" as="geometry" />
        </mxCell>
        <mxCell id="2IIyxGK5jB-0DUj0H7Wt-20" value="(mix2&amp;nbsp;⊕ x•a) mod (m + 1)" style="shape=process;whiteSpace=wrap;html=1;backgroundOutline=1;" vertex="1" parent="1">
          <mxGeometry x="323" y="570" width="200" height="60" as="geometry" />
        </mxCell>
        <mxCell id="2IIyxGK5jB-0DUj0H7Wt-22" value="" style="edgeStyle=orthogonalEdgeStyle;rounded=0;orthogonalLoop=1;jettySize=auto;html=1;" edge="1" parent="1" source="2IIyxGK5jB-0DUj0H7Wt-21" target="2IIyxGK5jB-0DUj0H7Wt-17">
          <mxGeometry relative="1" as="geometry" />
        </mxCell>
        <mxCell id="2IIyxGK5jB-0DUj0H7Wt-21" value="START" style="ellipse;whiteSpace=wrap;html=1;" vertex="1" parent="1">
          <mxGeometry x="170" y="140" width="120" height="80" as="geometry" />
        </mxCell>
        <mxCell id="2IIyxGK5jB-0DUj0H7Wt-48" value="Generated Sequence" style="shape=parallelogram;perimeter=parallelogramPerimeter;whiteSpace=wrap;html=1;fixedSize=1;" vertex="1" parent="1">
          <mxGeometry x="560" y="570" width="180" height="60" as="geometry" />
        </mxCell>
        <mxCell id="2IIyxGK5jB-0DUj0H7Wt-64" style="edgeStyle=orthogonalEdgeStyle;rounded=0;orthogonalLoop=1;jettySize=auto;html=1;entryX=0.5;entryY=0;entryDx=0;entryDy=0;" edge="1" parent="1" source="2IIyxGK5jB-0DUj0H7Wt-60" target="2IIyxGK5jB-0DUj0H7Wt-12">
          <mxGeometry relative="1" as="geometry">
            <Array as="points">
              <mxPoint x="423" y="410" />
            </Array>
          </mxGeometry>
        </mxCell>
        <mxCell id="2IIyxGK5jB-0DUj0H7Wt-60" value="bit rotation" style="rounded=0;whiteSpace=wrap;html=1;" vertex="1" parent="1">
          <mxGeometry x="365" y="380" width="120" height="60" as="geometry" />
        </mxCell>
        <mxCell id="2IIyxGK5jB-0DUj0H7Wt-66" value="" style="edgeStyle=orthogonalEdgeStyle;rounded=0;orthogonalLoop=1;jettySize=auto;html=1;" edge="1" parent="1" source="2IIyxGK5jB-0DUj0H7Wt-65" target="2IIyxGK5jB-0DUj0H7Wt-60">
          <mxGeometry relative="1" as="geometry" />
        </mxCell>
        <mxCell id="2IIyxGK5jB-0DUj0H7Wt-65" value="Chaos Map Mixing" style="shape=process;whiteSpace=wrap;html=1;backgroundOutline=1;" vertex="1" parent="1">
          <mxGeometry x="560" y="380" width="170" height="60" as="geometry" />
        </mxCell>
        <mxCell id="2IIyxGK5jB-0DUj0H7Wt-69" value="" style="edgeStyle=orthogonalEdgeStyle;rounded=0;orthogonalLoop=1;jettySize=auto;html=1;" edge="1" parent="1" source="2IIyxGK5jB-0DUj0H7Wt-67" target="2IIyxGK5jB-0DUj0H7Wt-60">
          <mxGeometry relative="1" as="geometry" />
        </mxCell>
        <mxCell id="2IIyxGK5jB-0DUj0H7Wt-67" value="Entropy Reseeding" style="shape=process;whiteSpace=wrap;html=1;backgroundOutline=1;" vertex="1" parent="1">
          <mxGeometry x="363" y="290" width="120" height="60" as="geometry" />
        </mxCell>
        <mxCell id="2IIyxGK5jB-0DUj0H7Wt-72" style="edgeStyle=orthogonalEdgeStyle;rounded=0;orthogonalLoop=1;jettySize=auto;html=1;entryX=0.5;entryY=1;entryDx=0;entryDy=0;" edge="1" parent="1" source="2IIyxGK5jB-0DUj0H7Wt-70" target="2IIyxGK5jB-0DUj0H7Wt-17">
          <mxGeometry relative="1" as="geometry" />
        </mxCell>
        <mxCell id="2IIyxGK5jB-0DUj0H7Wt-73" value="False" style="edgeLabel;html=1;align=center;verticalAlign=middle;resizable=0;points=[];" vertex="1" connectable="0" parent="2IIyxGK5jB-0DUj0H7Wt-72">
          <mxGeometry x="-0.2818" y="3" relative="1" as="geometry">
            <mxPoint as="offset" />
          </mxGeometry>
        </mxCell>
        <mxCell id="2IIyxGK5jB-0DUj0H7Wt-75" value="" style="edgeStyle=orthogonalEdgeStyle;rounded=0;orthogonalLoop=1;jettySize=auto;html=1;" edge="1" parent="1" source="2IIyxGK5jB-0DUj0H7Wt-70" target="2IIyxGK5jB-0DUj0H7Wt-74">
          <mxGeometry relative="1" as="geometry" />
        </mxCell>
        <mxCell id="2IIyxGK5jB-0DUj0H7Wt-76" value="True" style="edgeLabel;html=1;align=center;verticalAlign=middle;resizable=0;points=[];" vertex="1" connectable="0" parent="2IIyxGK5jB-0DUj0H7Wt-75">
          <mxGeometry x="-0.0216" relative="1" as="geometry">
            <mxPoint as="offset" />
          </mxGeometry>
        </mxCell>
        <mxCell id="2IIyxGK5jB-0DUj0H7Wt-70" value="numbers&lt;div&gt;&amp;gt;&lt;/div&gt;&lt;div&gt;n ?&lt;/div&gt;" style="rhombus;whiteSpace=wrap;html=1;" vertex="1" parent="1">
          <mxGeometry x="180" y="550" width="100" height="100" as="geometry" />
        </mxCell>
        <mxCell id="2IIyxGK5jB-0DUj0H7Wt-74" value="STOP" style="ellipse;whiteSpace=wrap;html=1;" vertex="1" parent="1">
          <mxGeometry x="170" y="710" width="120" height="80" as="geometry" />
        </mxCell>
      </root>
    </mxGraphModel>
  </diagram>
</mxfile>
